<svg width="32" height="32" viewBox="0 0 32 32" fill="none" xmlns="http://www.w3.org/2000/svg">
<path fill-rule="evenodd" clip-rule="evenodd" d="M0 16C0 7.16344 7.16344 0 16 0C24.8366 0 32 7.16344 32 16C32 24.8366 24.8366 32 16 32C7.16344 32 0 24.8366 0 16Z" fill="#E5F4F2"/>
<path fill-rule="evenodd" clip-rule="evenodd" d="M18.3721 12.4464H22.8916V11.1515H18.3721V12.4464ZM19.4428 15.2717C19.1548 15.5647 18.9732 15.9617 18.8989 16.4626H22.414C22.3769 15.928 22.1942 15.5241 21.8711 15.246C21.544 14.9698 21.1416 14.8322 20.66 14.8322C20.1382 14.8322 19.7308 14.9787 19.4428 15.2717ZM22.4932 13.5334C23.0381 13.7729 23.4866 14.1531 23.8399 14.6718C24.162 15.1292 24.3687 15.6598 24.463 16.2627C24.5182 16.6151 24.5403 17.1259 24.5312 17.7901H18.8487C18.8828 18.5613 19.1517 19.1028 19.6655 19.4127C19.9766 19.6057 20.3508 19.7027 20.7904 19.7027C21.253 19.7027 21.6313 19.5849 21.9213 19.3503C22.0808 19.2226 22.2213 19.0464 22.3417 18.8207H24.4239C24.3687 19.2761 24.1158 19.7403 23.6683 20.2116C22.9699 20.959 21.9915 21.3332 20.7342 21.3332C19.6956 21.3332 18.7794 21.0184 17.9877 20.3868C17.192 19.7562 16.7966 18.7286 16.7966 17.3071C16.7966 15.9736 17.1549 14.951 17.8703 14.2392C18.5878 13.5294 19.516 13.172 20.6589 13.172C21.3382 13.172 21.9493 13.2928 22.4932 13.5334ZM9.56876 16.4903V19.2652H12.1296C12.5871 19.2652 12.9444 19.2038 13.1982 19.082C13.6608 18.8543 13.8916 18.4227 13.8916 17.7832C13.8916 17.2407 13.6689 16.8695 13.2203 16.6666C12.9695 16.5537 12.6172 16.4943 12.1657 16.4903H9.56876ZM9.56876 12.4731V14.7688H12.1336C12.5902 14.7688 12.9624 14.6827 13.2494 14.5104C13.5344 14.3382 13.6779 14.0333 13.6779 13.5977C13.6779 13.1116 13.4892 12.7919 13.1119 12.6355C12.7848 12.5276 12.3694 12.4731 11.8647 12.4731H9.56876ZM15.2965 11.7752C15.6186 12.2177 15.7802 12.7464 15.7802 13.3631C15.7802 13.9977 15.6186 14.5095 15.2925 14.8956C15.1098 15.1114 14.8419 15.3093 14.4877 15.4875C15.0256 15.6816 15.431 15.9875 15.7069 16.4062C15.9798 16.824 16.1173 17.3328 16.1173 17.9307C16.1173 18.5475 15.9608 19.1008 15.6467 19.5899C15.448 19.9136 15.1992 20.1868 14.9001 20.4086C14.564 20.663 14.1676 20.8362 13.709 20.9313C13.2505 21.0253 12.7547 21.0708 12.2189 21.0708H7.46655V10.6665H12.5631C13.8495 10.6853 14.7596 11.0546 15.2965 11.7752Z" fill="#2D2D2D"/>
</svg>
